<svg xmlns="http://www.w3.org/2000/svg" xmlns:xlink="http://www.w3.org/1999/xlink" width="645" height="625" viewBox="0 0 645 625"><defs><clipPath id="a"><rect width="645" height="625" transform="translate(891 919)" fill="none"/></clipPath><clipPath id="b"><rect width="835.305" height="470.335" fill="none"/></clipPath></defs><g transform="translate(-891 -919)" clip-path="url(#a)"><g transform="translate(667.243 1178.098) rotate(-25)"><g clip-path="url(#b)"><path d="M277.83,469.488a11.177,11.177,0,0,1-3.267-.448c-2.389-.727-3.883-1.541-4.7-2.56a4.16,4.16,0,0,1-.823-2.722,2.874,2.874,0,0,0-.307-1.507,3.86,3.86,0,0,0-2.116-1.294c-2.988-.987-8.98-1.541-18.856-1.744-28.92-.595-75.124-.772-119.826-.772-65.02,0-126.883.374-127.926.38L0,457.677c1.042-.006,62.916-.38,127.929-.38,44.72,0,90.918.177,119.853.772,9.994.205,16.092.778,19.192,1.8,3.118,1.03,3.166,2.529,3.208,3.852a3.039,3.039,0,0,0,.571,2.041c.659.82,2.015,1.534,4.143,2.182,4.037,1.228,9.5-.6,15.28-2.535,4.868-1.629,9.9-3.314,14.75-3.465,5.115-.16,12.789-2.39,20.53-5.966a84.481,84.481,0,0,0,10.923-6.034,48.1,48.1,0,0,0,8.653-7.077,45.008,45.008,0,0,0,5.779-7.725,41.975,41.975,0,0,0,3.562-7.593,23.067,23.067,0,0,0,1.339-6.17c.076-1.587-.175-2.752-.7-3.282-.1-.1-.806-.6-4.813-.617-2.644-.01-6.119.2-10.048.591-8.179.823-16.365,2.258-20.853,3.656-.535.167-.988.324-1.372.47-.048.94-.089,1.893-.121,2.818a.572.572,0,0,1-1.113.169l-.7-1.988c-.173.154-.193.239-.194.241a15.231,15.231,0,0,0,.779,4.61,35.16,35.16,0,0,1,1.458,10.015,13.291,13.291,0,0,1-1.246,5.213,11.468,11.468,0,0,1-3.885,4.437,106.892,106.892,0,0,1-19.412,10.062,63.792,63.792,0,0,1-9.881,3.146c-3.188.681-5.575.727-7.1.135-.842-.327-1.608-.6-2.35-.856-2.214-.776-3.963-1.389-5.027-2.75-1.1-1.411-1.388-3.493-.955-6.96.927-7.419,4.207-53.867,4.6-59.51l-23.5-2.224a61.185,61.185,0,0,1-2.367,7.926,42.1,42.1,0,0,1-3.341,7.022,20.146,20.146,0,0,1-5.029,5.812c-2.351,1.738-4.226,3.384-5.88,4.836a27.142,27.142,0,0,1-4.622,3.585,3.638,3.638,0,0,1-4.113-.11,68.35,68.35,0,0,1-7.58-6.855q.45.732.912,1.417c2.4,3.555,4.888,5.892,7.2,6.758,1.067.4,2.619.163,4.612-.7a33,33,0,0,0,5.809-3.458,75.073,75.073,0,0,0,6.913-5.678.572.572,0,0,1,.857.752c-.4.546-9.755,13.409-14.78,16.422a5.634,5.634,0,0,1-4.78.5,12.568,12.568,0,0,1-5.037-3.485,16.909,16.909,0,0,1-2.953-4.249c-1.039-2.342-.747-6.835-.523-9.024a55.676,55.676,0,0,1-3.806-8.276c-.653-1.793-1.372-3.563-2.068-5.274-2.16-5.311-4.2-10.328-3.942-15.208.328-6.288,7.032-34.432,7.317-35.627a.573.573,0,0,1,1.015-.211c.065.086,6.551,8.727,13.6,17.458,12.326,15.263,16.144,18.159,17.322,18.527a144.445,144.445,0,0,0,15.854,3.095,139.446,139.446,0,0,0,16.848,1.86c2.313,0,6.044,1.136,10.364,2.45a105.5,105.5,0,0,0,13.532,3.467c5.143.824,8.969.538,11.7-.873,3.844-1.989,8.459-7.153,13.345-14.934,1.138-1.812,2.169-3.574,3.053-5.148-1.089,1.362-2.333,2.861-3.668,4.37-6.04,6.822-10.987,10.571-14.7,11.144-5.481.844-16.053-.938-24.547-2.37a98.378,98.378,0,0,0-11.729-1.607c-3.18,0-10.726-.731-16.795-1.456-3.409-.407-6.581-.838-8.93-1.211-4.1-.652-4.6-.952-4.785-1.065-.5-.3-1.786-2.032-5.624-7.305-4.039-5.55-9.571-13.151-14.781-19.439a85.471,85.471,0,0,0-7.262-7.925c-2.77-2.563-4.2-3.1-4.911-3.1a56.5,56.5,0,0,0-6.435,1.782c-6.334,1.934-15.907,4.857-20.792,4.857-1.685,0-3.036-1.753-4.128-5.359-2.268-7.486-2.749-20.461-2.85-25.692-.086-4.421-.02-8.652.185-11.915.1-1.608.231-2.906.387-3.858.231-1.414.479-1.837.778-2.037,1.987-1.326,7.763-4.536,8.008-4.672a.573.573,0,0,1,.179-.063l9.463-1.669q-.441-1.349-1.061-2.9a63.093,63.093,0,0,0-4.133-8.5,130.025,130.025,0,0,1-8.105-16.622,82.319,82.319,0,0,1-4.21-12.99c-1.035-4.714-1.162-8.538-.375-11.368a46.031,46.031,0,0,1,4.568-10.177,91.754,91.754,0,0,1,7.236-10.61,71.34,71.34,0,0,1,7.88-8.62c2.71-2.448,4.948-3.863,6.654-4.2,6.653-1.331,17.009-.061,17.446-.007l.043.007c.779-1.457,1.343-2.324,1.4-2.41l.01-.015a66.46,66.46,0,0,1,8.465-9.388,54.723,54.723,0,0,1,9.365-7.025,34.189,34.189,0,0,1,11.767-4.408,44.585,44.585,0,0,1,22.367,1.937c6.031,2.2,10.916,5.7,13.4,9.611a12.469,12.469,0,0,1,1.634,6.923q-.008.638-.056,1.311l.372-1.432a.572.572,0,0,1,.969-.25l6.307,6.641a.573.573,0,0,1,.078.684l-3.24,5.511v8.476a27.608,27.608,0,0,1-2.412,9.314,28.4,28.4,0,0,1-6.748,10.042,31.411,31.411,0,0,1-4.015,2.892q-.251.572-.509,1.11l.016,0a.573.573,0,0,1,.517.117l6.159,5.227-4.98-6.088a.573.573,0,0,1,.113-.83c.055-.039,5.529-3.936,7.1-7.721a.572.572,0,0,1,.835-.264,22.561,22.561,0,0,1,5.3,5.244,30.342,30.342,0,0,1,3.893,6.932,35.108,35.108,0,0,1,2.331,9.8l18.239,6.187a.573.573,0,0,1,.388.522l.666,18.927a.572.572,0,0,1-.027.195q1,1.164,1.772,2.129a15.847,15.847,0,0,1,2.54,3.825c.93,2.782,2.979,11.673,3.324,13.18q.35.2.691.431a11.387,11.387,0,0,1,3.692,4.235,14.4,14.4,0,0,1,1.46,5.072c3.785-6.465,9.57-16.261,12.135-18.826,2.128-2.13,4.623-9.223,6.444-14.4,1.636-4.651,2.311-6.451,2.914-6.9,1.373-1.033,8.065-2.875,8.824-3.082a.573.573,0,0,1,.4.038l10.685,5.2,1.473-4.209a.566.566,0,0,1,.041-.092l8.949-15.908c1.141-2.738,3.335-8.043,3.617-8.875a74.935,74.935,0,0,0-1.165-9.1,77.655,77.655,0,0,0-1.785-9.072c-.233-.467-1.482-.262-2.473.095.459,2.093,2.2,10.286,1.9,12.994-.062.558-.127,1.469-.2,2.525-.165,2.325-.391,5.509-.814,8.3-.534,3.521-1.237,5.484-2.21,6.178l-.121.087a10.7,10.7,0,0,1-2.977,1.712c.043,2.027.018,3.368.018,3.392a.573.573,0,0,1-.043.208l-3.985,9.63a.572.572,0,0,1-.837.264l-3.651-2.325c-3.466-2.207-10.577-2.235-10.649-2.235a.572.572,0,0,1-.572-.572c0-.051-.02-5.179-1.573-7.667-1.065-1.7-1.131-4.845-1-7.183a42.732,42.732,0,0,1,1.6-9.219,12.785,12.785,0,0,0-1.918-11.8,5.486,5.486,0,0,1-.441-4.919c.532-1.551,1.585-2.978,2.4-3.249.409-.137,1.2-.119,3.933,1.055.611.262,1.2.533,1.686.759q-.171-.537-.343-1.1a.573.573,0,0,1,.017-.381l10.786-26.648-3.237-1.858a.573.573,0,0,1-.234-.738l4.317-9.3a.573.573,0,0,1,.785-.266c.828.434,20.292,10.646,21.3,11.318.4.266.487.775.263,1.512a6.566,6.566,0,0,1-.271.717l1.25-1.458a.573.573,0,0,1,.435-.2,11.156,11.156,0,0,0,4.207-.9c-5.2-3.87-11.3-6.521-18.177-9.506-3.774-1.639-7.677-3.334-11.785-5.385a.572.572,0,0,1-.194-.866c.348-.442,34.81-44.236,36.124-45.877.83-1.038,5.521-11.7,8.625-18.748,1.753-3.983,3.138-7.129,3.6-8.045.96-1.922,14.345-18.058,27.311-33.589,2.028-2.429,3.368-4.034,3.632-4.364.582-.728,4.554-6.637,8.76-12.893,5.247-7.805,11.194-16.651,12.485-18.311.4-.515,1.4-1.287,5.479-2.043,2.318-.43,5.373-.808,9.079-1.123,6.294-.535,12.382-.705,12.443-.707a.573.573,0,0,1,.128,1.134L479.538,41.3c.117,1.551.445,6.418.377,11.706-.112,8.671-1.189,14.306-3.2,16.75-1.267,1.539-2.806,6.174-2.942,19.518-.08,7.828.381,15.1.412,15.585.1.618,1.871,12.094,3.237,23.736.821,7,1.335,12.695,1.529,16.922.334,7.293-.355,8.814-.992,9.323a1.221,1.221,0,0,1-1.2.23c-.977-.34-1.841-1.976-2.89-5.469-.835-2.784-1.659-6.367-2.386-9.528-.521-2.268-1.014-4.41-1.459-6.052a18.912,18.912,0,0,0-.773-2.4,42.911,42.911,0,0,0-1.047,6.485c-.457,4.232-.75,9.179-.827,13.929a111.117,111.117,0,0,0,.659,15.083c.625,4.987,1.653,8.525,3.054,10.516A14.412,14.412,0,0,0,478,182.4a41.4,41.4,0,0,0,9.493,2.174,76.1,76.1,0,0,0,11.666.472l6.93-13.547a19.422,19.422,0,0,1-1.738-1.463c-1.528-1.465-2.088-2.633-1.711-3.573a1.305,1.305,0,0,1,.843-.777c.728-.233,1.825.012,3.354.749.543.262,1.036.536,1.392.743l2.87-6.308a16.263,16.263,0,0,1-1.625-1.527c-1.363-1.487-1.879-2.767-1.534-3.805a1.256,1.256,0,0,1,.929-.887c.732-.157,1.7.3,3.04,1.435.324.275.626.552.88.8l.447-2.146c-3.027-12.812-12.3-50.69-17.593-72.261a.572.572,0,0,1,.283-.64l7.056-3.82q.028-.213.067-.437l-5.963-7.155a.572.572,0,0,1-.119-.489l7.256-32.988a33.065,33.065,0,0,1-.3-4.069A29.429,29.429,0,0,1,506.757,19.6a30.315,30.315,0,0,1,7.882-10.043,40.9,40.9,0,0,1,16.933-8.27A47.693,47.693,0,0,1,551.083.764a31.715,31.715,0,0,1,13.5,5.886,35.268,35.268,0,0,1,8.254,8.974A39.816,39.816,0,0,1,578.1,27.432l0,.024a42.862,42.862,0,0,1,.381,9.646,34.959,34.959,0,0,1-1.663,8.708,22.964,22.964,0,0,1-4.651,8.162c.023.15.053.359.089.618l3.655-2.992.391-3.518a.573.573,0,0,1,.842-.44c.1.053,9.929,5.39,20.728,11.755,14.527,8.561,23.8,14.8,27.548,18.557,2.123,2.123,4.02,6.369,5.638,12.618a149.851,149.851,0,0,1,3.324,18.594c.857,6.9,1.327,13.085,1.57,17.062.127,2.079.222,4.06.267,5.579a10.775,10.775,0,0,1-.03,2.5c-.256,1.209-1.516,24.385-2.3,39.708a.571.571,0,0,1-.042.188l-9.864,24.077c9.206-1.823,21.024-4.226,25.667-5.795a1.022,1.022,0,0,0,.37-.177c.04-.054,0-.265-.148-.483a4.685,4.685,0,0,0-2.427-1.4c-.265-.093-.539-.189-.8-.294a58.165,58.165,0,0,0-6.268-.108c-2.4.017-5.129.037-7.283-.031-3.625-.115-4.168-.43-4.438-.771a.728.728,0,0,1-.142-.625c.1-.419.538-.642,1.212-.866.5-.168,1.216-.353,2.119-.552,2.027-.446,4.551-.86,6.312-1.129,4.283-.655,9.472-1.275,10.656-1.135,9.092,1.082,9.014,9.139,8.951,15.613-.044,4.154-.086,8.341-.125,12.444a19.416,19.416,0,0,0,.282,2.4c.457,3.008.712,5.208-.158,6.138a4.9,4.9,0,0,1-2.769,1.2c-7.412,1.416-18.9,3.382-30,5.283S602.4,231.86,595,233.274l-7.84,1.5-4.042.772c-3.761.717-7.6,1.449-11.4,2.177-.132.025-.449.112-.815.212-3.4.927-5.7,1.346-6.664.577a1.188,1.188,0,0,1-.449-1c.1-2.633.239-5.3.37-7.887l.013-.259q-.074.421-.158.84c-.073.361-.2.857-.352,1.431a34.882,34.882,0,0,0-.934,4.379c-.2,1.666-.072,2.809.393,3.4a1.388,1.388,0,0,0,1.219.481,80.636,80.636,0,0,0,14.206-2.037c9.365-1.917,22.836-4.393,35.864-6.788s26.487-4.869,35.841-6.784l.031-.006a38.64,38.64,0,0,1,6.8-.971.574.574,0,0,1,.584.529c.085,1.108.227,2.3.377,3.571a41.65,41.65,0,0,1,.462,7.7,7.115,7.115,0,0,1-.794,2.986,3.17,3.17,0,0,1-2.273,1.616c-2.228.393-9.428,1.477-16.39,2.525-6.594.993-13.413,2.019-15.541,2.391-1.806.317-3.845.552-6,.8-2.874.331-5.819.671-8.408,1.226a2.072,2.072,0,0,1,.142,1.629c-.572,2.394-3.946,6.877-8.4,11.155-5.056,4.861-10.228,8.285-14.191,9.393a13.153,13.153,0,0,1-15.95-7.622,20.658,20.658,0,0,0-2.885-4.989,3.832,3.832,0,0,1-.966-3.129.573.573,0,0,1,.39-.543l.123-.041c-1.567.146-2.961.3-4.025.479a2.264,2.264,0,0,1-1.809-.4c-1.324-1-1.594-3.5-1.908-6.4-.127-1.176-.259-2.391-.469-3.539a121.719,121.719,0,0,1-2.016-15.558c-.1-2.82-.006-5.666.088-8.418v-.021a12.336,12.336,0,0,0-.381-3.052,19.722,19.722,0,0,1-.38-2.229l-.068.014a.573.573,0,0,1-.56-.2l-2.712-3.338L543.275,215a.572.572,0,0,1-.239.064,13.523,13.523,0,0,1-4.179-.606,9.783,9.783,0,0,1-6.331-5.378c-1.853-4.168-2.59-18.375-2.872-27.091l-.426-.111-2.307,2.51.091.05a.572.572,0,0,1,.3.479l.663,15.567a23.2,23.2,0,0,1,.165,5.975,16.03,16.03,0,0,1-1.337,5.116,10.321,10.321,0,0,1-3.734,4.393,25.519,25.519,0,0,1-10.028,3.988c-3.3.458-5.895-.168-7.313-1.762-1.648-1.854-2.318-5.057-2.857-7.631l0-.015-1.2,1.319c.071,1.324.082,2.472.084,2.841a19.981,19.981,0,0,0,2.029,3.505,17.726,17.726,0,0,0,6.609,5.724c2.008.951,4.905.392,7.95-1.535a23.191,23.191,0,0,0,7.241-7.6,22,22,0,0,0,3.247-11.266.572.572,0,0,1,1.137-.1c.069.4,1.672,9.844-.043,13.614-1.13,2.49-5.2,7-8.475,10.632-1.6,1.775-2.985,3.309-3.532,4.074-.357.5-1.3,2.182-2.489,4.311C511,243.978,502.759,258.7,497.5,262.118c-.449.292-.908.593-1.395.913a70.814,70.814,0,0,1-10.943,6.283,13.569,13.569,0,0,1-5.211,1.213,5.1,5.1,0,0,1-4.127-1.888A18.416,18.416,0,0,1,472.3,257.5a34.284,34.284,0,0,1,4.129-16.045c3.114-6.053,8.758-13.085,12.944-17.918,4.422-5.105,8.195-8.9,8.4-9.111l2.718-2.977a17.568,17.568,0,0,0-.525-3.75c-.113-.34-1.08-1.9-7.6-9.007-3.607-3.934-7.178-7.674-7.214-7.711a.573.573,0,0,1,.81-.809c.624.6,15.294,14.627,16.612,15.946a4.644,4.644,0,0,1,.924,2.036l1.236-1.354a.573.573,0,0,1,.808-.037,11.612,11.612,0,0,0,2.395,1.548,12.223,12.223,0,0,0,6.148,1.294c2.982-.188,5.568-2.8,7.157-4.854-.5.3-1.068.615-1.682.917a17.4,17.4,0,0,1-4.3,1.5,11,11,0,0,1-4.94-.086c-2.709-.714-6.659-3.482-11.741-8.229-3.751-3.5-6.769-6.849-6.8-6.883a.572.572,0,0,1,.489-.952c.02,0,2.012.222,4.117.35,3.491.211,4.408-.008,4.621-.091a68.477,68.477,0,0,1,4.47-6.54c2.095-2.916,4.175-5.747,4.2-5.775a.572.572,0,0,1,.712-.175l13.891,6.785.8-.875-13.893-7.549a.572.572,0,0,1,.418-1.057l17.241,4.508.737-.8c-.073-2.695-.1-4.526-.1-4.807a.573.573,0,0,1,.033-.2c.052-.148,5.291-14.946,10.584-29.595,3.109-8.6,5.629-15.475,7.488-20.421,1.105-2.94,1.987-5.224,2.622-6.791.343-.848.622-1.5.828-1.952.262-.569.407-.829.6-.956a59.022,59.022,0,0,0,3.184-6.692c1.683-3.794,3.855-8.842,5.955-13.723,4.021-9.345,8.179-19.008,9.615-21.561,2.024-3.6,1.491-11.674,1-16.126a88.741,88.741,0,0,1-2.15,10,48.171,48.171,0,0,1-3.022,8.213,15,15,0,0,1-4.642,5.971c-6.854,4.569-15.776,12.81-15.865,12.893l-.011.01-8.182,7.2a204.823,204.823,0,0,1-7.284,19.175c-2.514,5.277-7.62,32.824-9.84,45.241l-1.07,6.073v.005a.573.573,0,0,1-1.128-.2c.009-.053.441-2.567,1.137-6.456l8.161-46.339a.568.568,0,0,1,.031-.109l8.21-21.024-1.733-3.754-12.166.259c-.814,11.488-4.534,63.824-4.84,65.347-.206,1.034-3.795,8.424-7.111,14.642-2.043,3.831-3.937,7.15-5.478,9.6-1.952,3.1-3.358,4.857-4.3,5.37-2.091,1.141-6.894.845-10.554.4a55.181,55.181,0,0,1-8.859-1.7c-.473-.189-11.626-4.7-14.9-10.888-1.637-3.093-3.057-11.8-3.84-18.924-.79-7.182-1.258-15.741-.525-18.671,1.258-5.034,6.43-21.224,6.941-22.82l-.76-5.327c-3.986,6.165-20.5,31.7-21.088,32.589-1.716,2.577-3.931,6.363-6.494,10.747-8.781,15.013-21.354,36.511-33.1,42.82a38.18,38.18,0,0,1,10.416,13.427c9.07,18.847,17.2,32.149,25.592,41.863,8.605,9.963,17.837,16.595,29.052,20.871,10.456,3.987,22.814,6.066,40.068,6.741,16.042.628,34.8.01,58.538-.772,15.411-.508,32.878-1.083,52.494-1.393h.01l212.2.24v1.145l-212.2-.24c-19.6.31-37.06.885-52.465,1.392-23.766.783-42.538,1.4-58.621.772a181.746,181.746,0,0,1-22.026-2.033,93.25,93.25,0,0,1-18.406-4.782c-11.4-4.346-20.777-11.08-29.511-21.192-8.458-9.792-16.642-23.174-25.757-42.115a37.014,37.014,0,0,0-10.5-13.368,12.871,12.871,0,0,1-4.978,1.247l-7.766,9.057c-.259.454-2.337,4.1-4.4,7.89l-.452.83-2.705,8.717a.572.572,0,0,1-.229.306,1.731,1.731,0,0,1-1.389.248,1.286,1.286,0,0,1-.8-.875c-.082-.247-.059-.548.3-1.427.216-.524.548-1.24.987-2.126.67-1.353,1.6-3.13,2.772-5.29l3.1-9.995-13.293-7.631-10.651,26.315q.482,1.572.955,2.925c.55,1.259,1.63,3.717,2.7,6.068q.167.273.334.521a9.728,9.728,0,0,0,3.285,3.09,10.881,10.881,0,0,1,3.554,3.315c1.572,2.287,2.623,6.794,3.126,13.4.126,1.648.2,3.227.243,4.6a13.057,13.057,0,0,0,2.342-1.447l.122-.087c.386-.275,1.125-1.344,1.743-5.418.417-2.745.641-5.9.8-8.209.079-1.112.141-1.991.206-2.571.318-2.858-1.957-12.99-1.98-13.092a.573.573,0,0,1,.326-.649c.357-.159,3.512-1.5,4.394.268.53,1.059,1.78,8.715,1.921,9.585.369,2.278.685,4.428.89,6.053.367,2.914.268,3.213.208,3.391-.331,1-3.53,8.678-3.666,9a.57.57,0,0,1-.029.06l-8.941,15.893-1.5,4.287.564.274a.572.572,0,0,1,.312.622c-.231,1.209-5.688,29.684-8.34,35.651-.177.4-17.749,39.921-19.969,43.249a63.5,63.5,0,0,1-6.127,7.014c-1.326,1.348-2.537,2.5-3.5,3.327-1.569,1.348-2.114,1.534-2.469,1.534-.209,0-.731-.014-1.493-.043-.9,3.477-2.05,7.92-3.224,12.362-1.471,5.57-2.685,10.05-3.609,13.316-1.779,6.291-2.048,6.561-2.226,6.739-.854.852-7.755,12.588-8.528,14.127a35.377,35.377,0,0,0-.745,6.658c.294-.1.614-.21.963-.318,4.556-1.419,12.829-2.873,21.079-3.7,3.968-.4,7.483-.606,10.166-.6,4.2.014,5.217.55,5.619.952.772.772,1.131,2.205,1.038,4.146a24.206,24.206,0,0,1-1.4,6.488,43.133,43.133,0,0,1-3.66,7.8,46.154,46.154,0,0,1-5.926,7.922,49.227,49.227,0,0,1-8.859,7.252,85.67,85.67,0,0,1-11.074,6.117c-7.873,3.637-15.713,5.907-20.974,6.071-4.68.146-9.633,1.8-14.422,3.407C285.973,468.024,281.6,469.488,277.83,469.488Zm-29-81.92.054,0,24.568,2.325a.573.573,0,0,1,.517.61c-.037.521-3.663,52.236-4.649,60.129-.392,3.136-.177,4.964.721,6.113.857,1.1,2.386,1.632,4.5,2.374.715.251,1.526.535,2.386.869,2.525.982,8.408-.213,16.14-3.279a105.649,105.649,0,0,0,19.184-9.94,10.547,10.547,0,0,0,4.638-8.761,34.267,34.267,0,0,0-1.425-9.683c-.557-2.223-1-3.979-.8-5.094a1.819,1.819,0,0,1,.923-1.172l-.923-2.639-8.317,8.628a.573.573,0,0,1-.893-.708L324.3,398.264V389.47a.574.574,0,0,1,.035-.2l7.945-21.718-.122-.007c-1.066,2.084-3.042,5.791-5.515,9.732a77.569,77.569,0,0,1-6.446,8.964,26.154,26.154,0,0,1-7.348,6.389c-6.6,3.416-17.407.127-26.089-2.516-4.232-1.288-7.888-2.4-10.03-2.4-6.691,0-27.677-3.326-33.044-5.007-1.328-.414-3.739-2.545-7.37-6.514-2.817-3.079-6.351-7.247-10.5-12.389-5.68-7.033-10.994-14.007-12.891-16.515-1.3,5.534-6.722,28.773-7.007,34.237-.245,4.625,1.748,9.527,3.859,14.717.7,1.721,1.423,3.5,2.083,5.314a54.5,54.5,0,0,0,3.13,7.02.573.573,0,0,1,.731.085c.056.059,5.642,5.962,8.878,8.227,1.843,1.291,3.577-.109,7.323-3.4,1.588-1.394,3.564-3.13,5.954-4.9a19.024,19.024,0,0,0,4.732-5.486,40.966,40.966,0,0,0,3.247-6.83,58.152,58.152,0,0,0,2.423-8.251A.573.573,0,0,1,248.832,387.567Zm-33.241,24.353c-.146,2.222-.169,5.224.56,6.865.867,1.949,3.9,6.035,7.289,7.107a4.534,4.534,0,0,0,3.847-.392c3.032-1.819,7.917-7.66,11.153-11.784-.885.712-1.864,1.467-2.887,2.2-5.232,3.754-9.1,5.2-11.491,4.3C220.943,419.051,218.02,415.795,215.591,411.921Zm109.85-22.35v8.862a.573.573,0,0,1-.092.311l-15.7,24.237,4.842-5.023a.572.572,0,0,1,.953.208l1.168,3.337.208-.093c.026-.462.054-.944.086-1.432.3-4.716.605-5.8.805-6.2.563-1.12,7.513-13.112,8.714-14.395.224-.376,1.224-3.112,5.653-19.9,1.116-4.228,2.209-8.436,3.074-11.788-.507-.023-1.07-.05-1.681-.082Zm-81.287-11.212a20.564,20.564,0,0,0,4.368.911c2.335.372,5.491.8,8.886,1.205,6.034.721,13.526,1.448,16.659,1.448a98.145,98.145,0,0,1,11.92,1.623c8.413,1.418,18.884,3.183,24.183,2.367,3.4-.523,8.241-4.245,14.014-10.763,2.586-2.92,4.827-5.808,6.246-7.707-1.065-.067-2.2-.144-3.363-.233a124.828,124.828,0,0,1-16.269-2.086c-3.617-.834-9.154-2.884-16.457-6.093-5.427-2.384-9.856-4.553-9.9-4.575a.573.573,0,0,1-.314-.6l1-6.642a.572.572,0,0,1,1.028-.254l3.525,4.8,45.278,9.915a.573.573,0,0,1,.415.756l-1.483,4.055c.571.029,1.095.054,1.562.074.888-3.447,1.473-5.745,1.485-5.791a.573.573,0,0,1,.1-.211c.041-.052,4.093-5.242,8.142-10.623,2.376-3.157,4.284-5.76,5.674-7.737,2.295-3.266,2.62-4.046,2.663-4.22-.021-.355-.472-2.314-3.96-12.559-1.966-5.774-3.955-11.412-3.975-11.468a.572.572,0,0,1,1-.536c.021.027,2.087,2.755,4.342,5.5,3.572,4.343,4.832,5.337,5.232,5.564,1.016-1.351,5.168-8.68,7.707-13.275l12.075-34.5-10.611-5.161c-2.9.8-7.328,2.165-8.226,2.833a7.448,7.448,0,0,0-.945,2c-.452,1.158-1,2.717-1.581,4.368-1.961,5.576-4.4,12.516-6.715,14.831-2.6,2.6-9.066,13.654-12.541,19.594l-.294.5a31.25,31.25,0,0,0,1.7,5.327,31.638,31.638,0,0,0,3.892,7.389c.58.717.983,1.236,1.232,1.587.272.383.645.907.233,1.308-.371.362-.835.055-.988-.046s-.374-.267-.669-.5c-.535-.429-1.267-1.053-2.195-1.842l-.3-.255a28.1,28.1,0,0,1-4.685-5.313,15.549,15.549,0,0,1-1.394-2.427c-.393-.909-.437-1.517-.14-1.913.224-.3,1.063-1.723,2.166-3.607-.062-6.053-3-8.951-4.751-10.144q-.282-.192-.564-.355l-2.135,1.42c-5.574,3.706-10.309,6.854-14.5,10.085-.991,1.364-2,2.776-3.02,4.2-5.548,7.764-11.837,16.565-17.88,21.191a.572.572,0,0,1-.856-.719c4.535-8.708,9.208-15.062,15.151-20.6,1.817-1.694,3.731-3.3,5.771-4.874,4.569-6.284,8.574-11.284,11.9-12.6a6.691,6.691,0,0,1,4.764.245c-.633-2.733-2.3-9.832-3.089-12.187-.7-2.094-7.7-9.716-11.559-13.752l-1.26-1.308a.573.573,0,0,1,.823-.8l0,0h0l.006.006c.054.055.369.381.868.9l6.724,6.981-.6-17.037-.732-.248c-.092.986-1.262,3.176-9.625,10.469-4.615,4.025-9.268,7.706-9.315,7.743a.573.573,0,0,1-.75-.035l-6.873-6.559-6.579,7.519a.572.572,0,0,1-.3.181c-.04.009-4.072.927-9.148,1.546-6.846.835-12.238.76-16.026-.222-1.844-.478-3.873-.883-6.021-1.311-8.267-1.649-17.637-3.517-20.916-10.622a58.316,58.316,0,0,0-4.249-7.211,48.594,48.594,0,0,1-5.318-9.643,14.871,14.871,0,0,1-.075-10.82.573.573,0,0,1,1.023-.091,33.665,33.665,0,0,0,3.254,4.227c.792.893,1.794,1.947,3,3.063-.193-.495-.3-.794-.309-.831a.573.573,0,0,1,.4-.741,49.668,49.668,0,0,1-11.3-12.083A20.123,20.123,0,0,1,216.9,231.2q-.2-1-.32-2.044a32.358,32.358,0,0,1,1.063-11.953,46.855,46.855,0,0,1,2.087-6.078c.439-1.391.826-2.472,1.069-3.125-2.5-.265-10.872-1.021-16.351.075-2.946.589-8.385,5.46-13.858,12.41a90.612,90.612,0,0,0-7.144,10.474,44.908,44.908,0,0,0-4.456,9.911c-1.341,4.826.229,12.994,4.542,23.621a131.7,131.7,0,0,0,8,16.417,64.622,64.622,0,0,1,4.243,8.707q.671,1.673,1.138,3.12l.684-.121a.572.572,0,0,1,.6.288l7.305,13.279a.574.574,0,0,1,.066.2l3.985,29.218a.573.573,0,0,1-.368.614c-.054.02-5.424,2.011-11.009,3.841-3.287,1.077-6.006,1.888-8.082,2.412-3.623.914-4.615.779-5.073.559a.894.894,0,0,1-.485-.527c-.354-1.065-1.354-7.424-2.183-13.887-.605-4.72-1.561-12.939-1.157-14.961.344-1.714,2.012-4.95,4.533-7.818a18.9,18.9,0,0,1,4.229-3.668,9.732,9.732,0,0,1,5.082-1.589,1.5,1.5,0,0,0,1.475-.768c.543-1.016.4-3.01-.4-5.768l-9.51,1.677c-.726.4-5.941,3.317-7.8,4.549-.2.321-.567,2-.777,6.414-.182,3.835-.193,8.565-.032,13.318.184,5.407.578,10.46,1.141,14.613.662,4.882,1.529,8.41,2.576,10.487.656,1.3,1.342,1.961,2.04,1.961,4.714,0,14.189-2.893,20.458-4.807,3.943-1.2,6.035-1.832,6.769-1.832,1.351,0,3.212,1.114,5.689,3.4a86.55,86.55,0,0,1,7.366,8.035c5.233,6.316,10.777,13.934,14.825,19.5C241.35,374.78,243.7,378.015,244.154,378.359Zm92.461-11.745c.6.022,1.007.033,1.179.034.4-.1,2.128-1.408,5.315-4.661a61.238,61.238,0,0,0,5.851-6.7c1.819-2.727,15.3-32.77,19.875-43.079,2.425-5.458,7.471-31.307,8.179-34.971l-.049-.024L364.919,311.63a.573.573,0,0,1-.039.088c-.718,1.3-7.042,12.72-8.065,13.743a.787.787,0,0,1-.621.223c-.4-.028-1-.289-2.636-2-.916-.956-2.07-2.277-3.43-3.927-.819-.994-1.617-1.99-2.306-2.864.758,2.172,1.793,5.158,2.822,8.18,4.015,11.794,4.015,12.617,4.015,12.927,0,.4,0,1.229-8.415,12.422-3.8,5.061-7.655,10.007-8.232,10.747C337.884,361.671,337.363,363.714,336.616,366.614Zm-51.3-13c2.6,1.258,17.954,8.6,25.734,10.4,5.392,1.244,14.151,1.969,20.187,2.335.5-.688.785-1.094.794-1.108a.573.573,0,0,1,1.024.181l1.009-2.757-44.849-9.821a.573.573,0,0,1-.339-.221l-2.831-3.859Zm-99.73-11.593c.246.06,1.143.115,4.19-.651,2.049-.515,4.744-1.319,8.011-2.388,4.664-1.527,9.184-3.17,10.569-3.678l-3.909-28.657-7.057-12.827-.144.025c.868,3.047.962,5.228.277,6.508a2.612,2.612,0,0,1-2.484,1.373,8.614,8.614,0,0,0-4.483,1.42,17.759,17.759,0,0,0-3.968,3.448,19.611,19.611,0,0,0-4.271,7.287c-.267,1.339.17,6.794,1.17,14.591C184.326,334.976,185.26,340.809,185.589,342.019Zm122.952-22.9A67.723,67.723,0,0,0,292.6,338.937c5.21-4.807,10.565-12.3,15.363-19.016Zm24.105.512c-.011.24.269,1.253,1.716,3.323a26.565,26.565,0,0,0,4.3,4.817l.213.181a38.4,38.4,0,0,1-3.226-6.528c-.618-1.572-1.154-3.156-1.472-4.309C333.357,318.5,332.868,319.315,332.647,319.626ZM324.864,303.8a4.012,4.012,0,0,0-1.462.246c-2.5.99-5.657,4.574-9.125,9.15,3.448-2.5,7.245-5.02,11.5-7.85l1.572-1.045A6.913,6.913,0,0,0,324.864,303.8ZM224.429,248.307a12.75,12.75,0,0,0-.536,4.067,15.581,15.581,0,0,0,.988,4.88,47.769,47.769,0,0,0,5.2,9.406,60.062,60.062,0,0,1,4.33,7.357c3.035,6.576,12.1,8.384,20.1,9.979,2.164.432,4.209.839,6.085,1.326,3.595.932,8.985,1,15.589.2,4.417-.538,8.032-1.3,8.863-1.487l6.85-7.827a.572.572,0,0,1,.826-.037l6.944,6.627c1.238-.988,5.231-4.2,9.137-7.62,2.739-2.4,4.9-4.423,6.418-6.021a21.544,21.544,0,0,0,2-2.353,2.6,2.6,0,0,0,.568-1.132c-.418-.367-2.479-1.4-12.381-3.549-4.972-1.081-9.811-1.984-10.942-2.193-.834.625-4.143,3.062-8.6,5.774-4.767,2.9-11.868,6.716-18.625,8.449-4.9,1.257-8.9,1.443-12.566.584a30.712,30.712,0,0,1-8.575-3.83c-1.218-.7-2.478-1.433-3.828-2.107a16.8,16.8,0,0,1-5.021-4.064,31.565,31.565,0,0,1-3.6-5.174c-.63-1.11-1.16-2.165-1.59-3.087a45.484,45.484,0,0,1-4.935-4.785A39.64,39.64,0,0,1,224.429,248.307Zm9.727,9.806q.235.44.493.894c1.7,2.992,4.492,6.94,8.132,8.761,1.38.69,2.656,1.427,3.889,2.14,5.356,3.1,9.982,5.77,20.283,3.129,6.617-1.7,13.605-5.456,18.3-8.311,5.105-3.1,8.683-5.838,8.719-5.865a.572.572,0,0,1,.451-.109c.047.009,4.165.759,8.946,1.76l-1.929-.654a.573.573,0,0,1-.387-.494,34.112,34.112,0,0,0-2.271-9.807,29.222,29.222,0,0,0-3.726-6.662,23.835,23.835,0,0,0-4.5-4.628c-1.637,3.193-5.354,6.186-6.7,7.206l8.582,10.492a.572.572,0,0,1-.814.8L281.3,248l-4.7,12.841a.572.572,0,0,1-.3.326,48.779,48.779,0,0,1-18.071,4.479c-3.62.6-7.454.851-9.632-.166-.7-.328-1.547-.794-2.483-1.354a38.346,38.346,0,0,1-9.07-4.072C236.016,259.425,235.055,258.774,234.155,258.113Zm127.8,9.934c1.814.051,7.512.373,10.7,2.405l3.075,1.958,3.682-8.9c0-.354.015-1.551-.021-3.229a1.681,1.681,0,0,1-.322-.126c-.9-.463-1.319-1.68-1.319-3.83a37.371,37.371,0,0,0-1.616-11.411,4.273,4.273,0,0,0-1.242-1.459c-.187-.159-.383-.319-.59-.488a10.919,10.919,0,0,1-2.785-2.961c-.54-.945-1.55-3.095-2.569-5.34a33.253,33.253,0,0,1-2.755-6.2l-.263-.605c-.4-.2-1.411-.684-2.489-1.148-2.536-1.093-3.126-1.063-3.2-1.051a5.09,5.09,0,0,0-1.674,2.548,4.379,4.379,0,0,0,.317,3.9,13.985,13.985,0,0,1,2.064,12.761,41.535,41.535,0,0,0-1.554,8.96c-.173,3.07.121,5.382.827,6.511C361.634,262.608,361.9,266.576,361.951,268.047Zm138.616-54.985-1.958,2.144-.018.019c-.038.038-3.861,3.87-8.362,9.067-4.143,4.784-9.725,11.736-12.785,17.685a33.144,33.144,0,0,0-4,15.5,17.28,17.28,0,0,0,3.278,10.444c1.465,1.831,4.085,1.939,8.011.331a70,70,0,0,0,10.748-6.181c.488-.32.948-.622,1.4-.915,2.15-1.4,5.185-5.146,9.022-11.144,3.247-5.077,6.421-10.75,8.522-14.5,1.3-2.329,2.163-3.867,2.557-4.418.584-.818,1.921-2.3,3.613-4.176,3.05-3.38,7.226-8.01,8.283-10.339.83-1.824.776-5.308.537-8.2a24.918,24.918,0,0,1-10.464,14.992c-3.383,2.141-6.682,2.725-9.052,1.6a18.881,18.881,0,0,1-7.07-6.12,20.075,20.075,0,0,1-2.182-3.815.572.572,0,0,1-.041-.212C500.6,214.8,500.6,214.07,500.567,213.063Zm67.44,40.438a2.49,2.49,0,0,0,.712,2.006,21.678,21.678,0,0,1,3.034,5.232,12.01,12.01,0,0,0,14.6,6.989c3.786-1.059,8.782-4.381,13.705-9.116,4.237-4.074,7.558-8.432,8.075-10.6.092-.385.082-.686-.027-.786a.653.653,0,0,0-.415-.105l-1.063.176q-.154.044-.326.1l-.016.005h0a.57.57,0,0,1-.339.007c-2.638.439-5.6.935-8.709,1.454-4.441.743-9.033,1.511-12.666,2.11-1.012.167-2.306.317-3.758.456l-12.744,2.044Zm-321.434,9.565a35.754,35.754,0,0,0,7.044,1.323,37.29,37.29,0,0,0,4.494.111q1.534-.257,3.254-.641a62.449,62.449,0,0,0,11.779-3.731c3.564-1.78,2.687-7.973,2.678-8.035a.573.573,0,0,1,.179-.506,17.1,17.1,0,0,0,3.388-4.7,44.784,44.784,0,0,1-10.705,7.458,59.115,59.115,0,0,1-15.763,5.533,19.452,19.452,0,0,1-8.8-.592,35.291,35.291,0,0,1-8.709-3.879C238.624,257.763,243.21,261.038,246.573,263.066Zm-13.587-7.312a41.277,41.277,0,0,0,4.688,3.344,38.37,38.37,0,0,0,3.861,2.068c-3.443-2.346-7.01-4.976-9.022-6.481C232.652,255.011,232.81,255.369,232.986,255.754Zm44.005-3.528a15.149,15.149,0,0,1-.035,3.426,7.062,7.062,0,0,1-2.673,5.129q.66-.273,1.322-.565l4.43-12.108A17.778,17.778,0,0,1,276.992,252.227Zm-35.885,4.8c4.229,1.748,8.226,2.357,11.6,1.724a57.255,57.255,0,0,0,23.034-10.2c-1.667.861-3.472,1.736-5.383,2.61a96.442,96.442,0,0,1-17.758,6.389,22.375,22.375,0,0,1-7.046.461A19.889,19.889,0,0,1,241.107,257.028Zm130.579-19.2c.332.683.617,1.243.825,1.607a9.875,9.875,0,0,0,2.515,2.642c.212.173.412.337.608.5a5.233,5.233,0,0,1,1.562,1.9,37.832,37.832,0,0,1,1.7,11.838,4.815,4.815,0,0,0,.458,2.582c-.179-5.364-.837-13.818-3.159-17.2a9.785,9.785,0,0,0-3.231-3C372.544,238.438,372.12,238.164,371.687,237.832Zm-153.648-6.8a21.355,21.355,0,0,0,4.668,9.649,82.372,82.372,0,0,0,8.676,9.011,35.063,35.063,0,0,0,7.492,5.163,19.784,19.784,0,0,0,6.8,2.014,21.259,21.259,0,0,0,6.689-.442,95.279,95.279,0,0,0,17.523-6.311,105.83,105.83,0,0,0,9.508-4.886q.112-.122.221-.245c4.549-5.119,4.047-19.7,3.879-22.87a35.429,35.429,0,0,0-6.936,1.968A42.089,42.089,0,0,0,261.2,234.472a.573.573,0,0,1-.9-.705,44.5,44.5,0,0,1,6.9-7.832,36.854,36.854,0,0,1,7.885-5.532,25.1,25.1,0,0,1,9.887-2.813,54.726,54.726,0,0,0,2.9-8.16,30.6,30.6,0,0,0,1.109-7.272,11.362,11.362,0,0,0-1.455-6.285c-2.355-3.7-7.032-7.034-12.831-9.15a43.44,43.44,0,0,0-21.793-1.882,33.042,33.042,0,0,0-11.358,4.258,53.547,53.547,0,0,0-9.161,6.869,65.461,65.461,0,0,0-8.317,9.214,44.736,44.736,0,0,0-3.282,6.412,69.644,69.644,0,0,0-2.028,8.085,43.772,43.772,0,0,0-.785,10.507Q218,230.615,218.039,231.034Zm339.6-17.526c.077.643.207,1.259.334,1.858a13.421,13.421,0,0,1,.4,3.328v.021c-.093,2.732-.19,5.557-.088,8.337a120.657,120.657,0,0,0,2,15.393c.217,1.189.351,2.426.481,3.622.261,2.41.531,4.9,1.462,5.607a1.137,1.137,0,0,0,.929.182c2.476-.41,6.639-.715,10.665-1.009,2.36-.173,4.767-.349,6.842-.547l25.706-4.123a64.261,64.261,0,0,1,11.009-1.887c2.141-.247,4.163-.48,5.937-.791,2.142-.374,8.663-1.356,15.568-2.4,6.955-1.047,14.147-2.13,16.361-2.521.8-.141,1.884-.664,2.125-3.569a40.906,40.906,0,0,0-.458-7.475c-.127-1.074-.249-2.1-.336-3.07a41.232,41.232,0,0,0-6.064.928l-.031.006c-9.365,1.917-22.836,4.393-35.864,6.788s-26.487,4.869-35.841,6.784a81.5,81.5,0,0,1-14.41,2.06,2.505,2.505,0,0,1-2.143-.916c-1.474-1.866-.387-6.024.332-8.775.146-.557.271-1.038.337-1.367a36.96,36.96,0,0,0-.3-15.791.572.572,0,0,1,.136-.522,1.406,1.406,0,0,1,1.146-.438,1.889,1.889,0,0,1,1.388.763,3.735,3.735,0,0,1,.52,2.157c.048,3.153-.113,6.306-.269,9.354l-.211,4.179c-.131,2.579-.267,5.246-.37,7.873a.133.133,0,0,0,0,.049s.3.33,2.134.045a33.916,33.916,0,0,0,3.529-.817c.421-.115.726-.2.9-.232,3.8-.728,7.636-1.46,11.4-2.177l4.042-.772q3.92-.748,7.84-1.5c7.415-1.416,18.9-3.383,30.017-5.286s22.578-3.866,29.979-5.279a3.879,3.879,0,0,0,2.149-.863c.1-.106.322-.5.256-1.894-.048-1.013-.232-2.223-.394-3.29a19.352,19.352,0,0,1-.295-2.588c.04-4.1.082-8.29.125-12.444.031-3.147.065-6.715-.992-9.482a7.3,7.3,0,0,0-2.339-3.281,9.056,9.056,0,0,0-4.61-1.7,77.5,77.5,0,0,0-9.848,1.054c-2.4.36-4.538.73-6.175,1.071-.983.2-1.661.372-2.127.5.579.069,1.475.136,2.863.175,2.088.058,4.686.04,6.979.023,4.341-.031,6.161-.023,6.693.187.246.1.5.186.767.28a5.658,5.658,0,0,1,2.986,1.828,1.544,1.544,0,0,1,.129,1.82,1.79,1.79,0,0,1-.925.581c-4.833,1.633-17.219,4.134-26.552,5.979l-.906,2.213a.573.573,0,0,1-.419.345c-.047.009-4.731.924-9.761,1.459a54.719,54.719,0,0,1-7.458.371c-2.619-.092-4.316-.519-5.188-1.3-.514-.463-1.153-1.6-1.078-5.948a17.736,17.736,0,0,0-3.183-.858c-.066.341-.129.691-.187,1.045-.719,4.391-.016,5.365.216,5.558.752.628,5.645,1.726,11.73,2.362a63.986,63.986,0,0,0,7.783.4c3.194-.073,4.083-.557,4.317-.762s.6-.52,1-.3a.6.6,0,0,1,.3.627c-.026.166-.073.475-1.934,2.795-1.185,1.477-2.685,3.234-4.115,4.82-1.738,1.927-3.353,3.583-4.671,4.791-1.687,1.546-2.9,2.376-3.7,2.537s-2.045.5-3.466.9c-4.239,1.171-10.645,2.941-14.973,2.434a26.678,26.678,0,0,1-5.961-1.324c-1.934-.715-3.133-1.6-3.562-2.624a2.505,2.505,0,0,1,.5-2.619,34.7,34.7,0,0,0,3.047-4.8c-.133.066-.271.131-.411.193-1.7.754-3,.785-3.867.091a8.734,8.734,0,0,0-1.126-.7c-1.065-.6-2.271-1.274-2.445-2.534a2.241,2.241,0,0,1-.017-.432,34.371,34.371,0,0,1-13.551,4.284c-.542.065-1.074.167-1.614.286C558.388,213.078,558.012,213.3,557.639,213.508ZM222.36,242.043a49.647,49.647,0,0,0,9.443,9.507q-.581-.477-1.173-.992A81.411,81.411,0,0,1,222.36,242.043ZM287.25,218.9a123.662,123.662,0,0,1-2.04,13.76,72.144,72.144,0,0,1-3.06,10.843,24.822,24.822,0,0,0,2.494-1.886,27.258,27.258,0,0,0,6.452-9.631,26.456,26.456,0,0,0,2.32-8.866V214.49a.573.573,0,0,1,.079-.29l3.1-5.274-5.3-5.581Zm-3.222,1.989a.573.573,0,0,1,.571.53c0,.04.254,3.521.094,7.883,1.045-5.844,1.415-10.488,1.419-10.543a.574.574,0,0,1,.017-.1l.561-2.156c-.477,1.164-.812,1.868-.82,1.884a.572.572,0,0,1-.49.325,23.832,23.832,0,0,0-9.753,2.7,35.678,35.678,0,0,0-7.631,5.35c-.676.61-1.307,1.219-1.891,1.812q1.212-.9,2.484-1.714A43.135,43.135,0,0,1,276.183,223a33.172,33.172,0,0,1,7.786-2.11A.571.571,0,0,1,284.028,220.891ZM384.207,225c.028.06.051.081.057.083a.429.429,0,0,0,.224-.04l.776-2.5A13.814,13.814,0,0,0,384.207,225Zm198.978-15.4a.573.573,0,0,1,.521.809,38.317,38.317,0,0,1-4.054,6.753c-.628.808-.419,1.309-.35,1.474.293.7,1.324,1.408,2.9,1.992a25.537,25.537,0,0,0,5.7,1.261c4.106.481,10.382-1.253,14.535-2.4,1.442-.4,2.687-.743,3.546-.914.323-.065,1.153-.434,3.073-2.183,1.26-1.148,2.816-2.736,4.5-4.591,2.1-2.317,3.861-4.448,4.916-5.811a17.685,17.685,0,0,1-3.427.344,65.149,65.149,0,0,1-7.928-.407c-4.228-.442-11.005-1.5-12.344-2.621-1.006-.838-1.206-3.008-.611-6.632.054-.329.112-.654.172-.971a7.818,7.818,0,0,0-1.977.141,15.751,15.751,0,0,0-1.7.451c-1.839,1.087-4.624,2.772-7.311,4.547-.536.467-1.074.95-1.626,1.445a52.859,52.859,0,0,1-6.259,5.043,1.951,1.951,0,0,0-.38,1.227c.1.7,1,1.2,1.871,1.692a9.653,9.653,0,0,1,1.281.807c1.076.86,3.761-.722,4.617-1.344A.572.572,0,0,1,583.185,209.6Zm-19.371,4.767a37.756,37.756,0,0,1,.8,5.235c.028-1.145.039-2.294.021-3.44a2.734,2.734,0,0,0-.305-1.507A.75.75,0,0,0,563.813,214.369Zm-60-4.865q.085.4.173.821c.511,2.441,1.147,5.479,2.592,7.105,1.155,1.3,3.393,1.793,6.3,1.389a24.361,24.361,0,0,0,9.562-3.814,9.191,9.191,0,0,0,3.314-3.9,14.86,14.86,0,0,0,1.24-4.737,22.313,22.313,0,0,0-.156-5.716.57.57,0,0,1-.009-.081l-.651-15.282-.058-.032-1.287,1.4a.572.572,0,0,1-.673.127l-13.845-6.763c-3.873,5.276-8.013,11.081-8.271,11.746-.2.589-.985.749-2.1.808a31.91,31.91,0,0,1-3.241-.047c-1.1-.06-2.2-.15-3.047-.227,3.008,3.2,11.94,12.347,16.961,13.669,5.95,1.566,12.368-3.812,12.432-3.866a.573.573,0,0,1,.873.71,22.77,22.77,0,0,1-2.731,3.8,15.547,15.547,0,0,1-3.062,2.708,8.23,8.23,0,0,1-3.97,1.426,13.373,13.373,0,0,1-6.766-1.43,13.8,13.8,0,0,1-2.175-1.346Zm27-27.213c.292,8.667,1.021,22.419,2.756,26.322a8.56,8.56,0,0,0,5.622,4.749,12.776,12.776,0,0,0,3.67.559l9.532-4.977-.471-.579a19.121,19.121,0,0,1-3.529,2.6c-3.165,1.784-6.153,2.031-8.641.713-1.444-.764-2.671-2.761-3.749-6.1a64.893,64.893,0,0,1-2.153-9.88c-.88-5.809-1.257-11.412-1.351-12.96Zm23.353,27.02,2.344,2.885c.333-.073.668-.152.994-.229.271-.064.545-.129.822-.191.517-.315,1.035-.642,1.544-.963.443-.28.9-.569,1.348-.843l11.652-7.171,16.162-9.947,7.234-17.426a.572.572,0,0,1,1.087.347l-4.29,18.813a9.663,9.663,0,0,1,1.494-.015c.315-1.461.623-2.572.683-2.782l4.959-31.075-3.977-20.577c.185,3.147.4,6.84.6,10.532,1.086,19.451.921,19.942.842,20.178-.335,1.009-8.631,19.517-8.984,20.3a.572.572,0,0,1-.258.273ZM387.584,203.6l3.64,2.09a.573.573,0,0,1,.262.666l-1.587,5.114c1.256-2.247,2.19-3.884,2.205-3.909a.58.58,0,0,1,.062-.089l.981-1.144A56.631,56.631,0,0,1,387.584,203.6ZM530.777,181.1l2.417.632a.573.573,0,0,1,.427.525c0,.065.343,6.532,1.364,13.275a63.753,63.753,0,0,0,2.111,9.7c1.206,3.738,2.4,5.022,3.194,5.441a6.229,6.229,0,0,0,3.884.631,10.616,10.616,0,0,0,3.636-1.317,17.883,17.883,0,0,0,3.749-2.856.573.573,0,0,1,.859.033l1.013,1.247,34.292-17.9c2.431-5.423,8.477-18.954,8.852-19.99.18-1.436-1.1-24.06-2.011-38.993a.572.572,0,0,1,1.133-.143l5.647,29.22a.571.571,0,0,1,0,.2L596.368,192a.6.6,0,0,1-.015.067c0,.016-.32,1.128-.649,2.631a18.2,18.2,0,0,1,2.987.78q.011-.259.024-.531c.166-3.309.643-7.7,1.417-13.039,1.315-9.082,3.059-17.912,3.077-18a.572.572,0,0,1,.607-.459,99.654,99.654,0,0,0,10.772.165,41.752,41.752,0,0,0,7.96-.99,13.3,13.3,0,0,0,2.849-1.009,52.952,52.952,0,0,1-6.7,1.313,23.3,23.3,0,0,1-7.1-.038c-2.49-.483-4.18-1.581-5.021-3.263-2.072-4.144-4.349-13.251-5.232-16.974-1.378-5.811-2.664-12.345-2.457-13.592.121-.72,1.421-2.545,4.613-6.973,4.7-6.516,11.982-16.621,16.1-25.181-1.875,2.838-4.38,6.587-7.016,10.411-7.257,10.525-12.015,16.581-14.141,18-4.85,3.232-10.11,9.775-10.162,9.84a.573.573,0,0,1-.482.214l-21.584-1.328a.573.573,0,0,1-.393-.952l2.657-2.988a.573.573,0,0,1,.208-.148,1.145,1.145,0,0,1-.438-.54.919.919,0,0,1,.253-1c1.512-1.512,11.919-17.12,17.514-25.621L574.941,96.79a.573.573,0,0,1,.068-1.038l12.481-4.8-9.626-39.469-.861.7-.211,1.893,8.94,36.425a.572.572,0,0,1-.4.686l-14.721,4.292,12.546,7.956a.573.573,0,0,1,.168.8L536.18,174.3a.574.574,0,0,1-.053.068l-5.375,5.849Q530.764,180.645,530.777,181.1Zm63.962,1-4.718,11.365a.572.572,0,0,1-.229.268l-16.32,10.045-11.652,7.171c-.187.115-.376.232-.565.351a32.053,32.053,0,0,0,13.378-4.8,10,10,0,0,1,1.173-1.372,49.109,49.109,0,0,1,6.875-5.22,22.243,22.243,0,0,1,7.476-4.646c.855-.5,1.5-.874,1.823-1.06Zm-96.662,21.269c2.7,3.142,2.887,3.71,2.974,3.973a14.51,14.51,0,0,1,.5,2.951l1.019-1.116a5.883,5.883,0,0,0-.8-2.244C501.4,206.562,499.965,205.176,498.078,203.364Zm-121.083-6.712a.572.572,0,0,1,.277.072c7.108,3.932,15.094,8.186,16.292,8.545a14.773,14.773,0,0,0,2.674-3.28,12.232,12.232,0,0,0,1.9-3.7c-1.588-.933-14.774-7.875-20.542-10.9l-3.843,8.275,2.645,1.518.069-.17a.572.572,0,0,1,.531-.358Zm222.8.465c-.026,3.566.465,4.446.7,4.663.7.633,3.167,1.56,11.752.646,4.253-.453,8.258-1.179,9.367-1.388l.5-1.226-1.193.235c-2.621.517-4.885.963-6.42,1.283-3.627.752-7.594-1.044-11.429-2.782C601.99,198.054,600.889,197.555,599.795,197.116Zm.027-1.221c1.247.485,2.495,1.05,3.73,1.61,3.669,1.662,7.462,3.38,10.724,2.7,1.541-.32,3.807-.767,6.432-1.285l1.934-.382,10.113-24.687c.054-1.044.528-10.25,1.033-19.453,1.027-18.728,1.227-20.135,1.3-20.408a227.074,227.074,0,0,0-1.886-25.05A146.588,146.588,0,0,0,629.914,90.7c-1.556-5.962-3.339-9.979-5.3-11.938-3.632-3.632-13.079-9.988-27.32-18.38-9.068-5.344-17.451-9.962-19.945-11.327l-.167,1.506.658-.538a.573.573,0,0,1,.919.307l9.961,40.841a.572.572,0,0,1-.351.67l-11.792,4.535,10.532,5.716a.572.572,0,0,1,.205.818c-.639.972-15.4,23.409-17.87,26.18a9.8,9.8,0,0,0,2.833.84c1.34.268,3.078.533,5.175.787l9.106.858a.573.573,0,0,1-.092,1.141c-.043,0-4.327-.3-8.638-.8l-.5-.059-8.188-.772-1.682,1.892,20.115,1.237c1-1.225,5.7-6.828,10.233-9.846,1.378-.919,4.9-4.736,13.833-17.7,5.37-7.789,10.194-15.267,10.242-15.342a.572.572,0,0,1,1.027.483c-3.01,9.489-12.694,22.922-18.48,30.948-1.267,1.758-2.362,3.276-3.147,4.421a10.227,10.227,0,0,0-1.266,2.075c-.134.8.815,6.274,2.442,13.134,1.847,7.787,3.721,13.883,5.142,16.726,1.565,3.129,6.815,3.183,10.943,2.678a54.205,54.205,0,0,0,8.955-1.969.572.572,0,0,1,.677.825c-.773,1.374-2.525,2.384-5.357,3.087a42.893,42.893,0,0,1-8.191,1.022,101.344,101.344,0,0,1-10.393-.132c-.384,1.984-1.837,9.625-2.971,17.451-.769,5.307-1.242,9.657-1.406,12.93Q599.836,195.472,599.822,195.895ZM375.958,181.474c3.851,1.9,7.533,3.5,11.1,5.046,6.339,2.753,12.326,5.352,17.437,8.95q.747.526,1.458,1.072a25.019,25.019,0,0,0,4.42-2.915,65.884,65.884,0,0,0,10.305-11.067c6.819-8.881,13.226-19.836,18.374-28.638,2.573-4.4,4.795-8.2,6.53-10.8.655-.983,21.7-33.533,21.91-33.861a.573.573,0,0,1,1.048.23l1,6.973a.573.573,0,0,1-.022.256c-.056.176-5.653,17.64-6.961,22.874-.605,2.418-.383,9.759.552,18.268.984,8.951,2.407,16.045,3.714,18.514,1.2,2.258,3.821,4.664,7.594,6.958a49.374,49.374,0,0,0,6.721,3.4,54.911,54.911,0,0,0,8.573,1.624c4.939.605,8.443.511,9.867-.265,1.4-.762,4.878-6.183,9.314-14.5,3.822-7.166,6.867-13.669,7-14.328.124-.632.885-10.681,1.824-23.5-.5,5.1-.93,9.407-1.274,12.865-.329,3.3-.587,5.861-.765,7.6-.1.935-.171,1.653-.223,2.132-.027.248-.048.439-.063.567-.008.069-.015.121-.02.156a.584.584,0,0,1-.6.54.57.57,0,0,1-.545-.552c-.021-.157-.148-.739-.365-1.686l-.161.774a.572.572,0,0,1-.981.272,19.906,19.906,0,0,0-1.55-1.476c-1.489-1.258-2-1.194-2.052-1.183-.029.006-.057.05-.084.13-.4,1.207,1.93,3.446,3.123,4.341a.573.573,0,0,1,.178.695l-3.322,7.3a.572.572,0,0,1-.831.244c-1.3-.833-3.575-1.952-4.341-1.707a.17.17,0,0,0-.129.111c-.131.328.176,1.107,1.432,2.313a18.789,18.789,0,0,0,2.013,1.653.573.573,0,0,1,.184.731l-7.3,14.278a.572.572,0,0,1-.476.311,76.448,76.448,0,0,1-12.181-.461,42.573,42.573,0,0,1-9.767-2.239c-3.431-1.3-5.935-3.042-7.441-5.182s-2.6-5.858-3.254-11.033a112.277,112.277,0,0,1-.668-15.244c.077-4.784.373-9.768.833-14.033.254-2.352.775-6.449,1.411-7.468a.811.811,0,0,1,.841-.432c.5.083.78.6,1.013,1.154a18.406,18.406,0,0,1,.7,2.109c.479,1.709,1.01,4.02,1.573,6.467.723,3.144,1.542,6.708,2.367,9.456,1.232,4.1,1.972,4.648,2.169,4.716.016.006.035.012.1-.042.041-.033.407-.383.569-2.485a51.07,51.07,0,0,0-.005-5.891c-.192-4.2-.7-9.865-1.522-16.839-1.394-11.887-3.217-23.6-3.235-23.721,0-.017,0-.033-.006-.05-.005-.075-.5-7.586-.416-15.691.112-10.985,1.189-17.8,3.2-20.241,1.817-2.206,2.834-7.751,2.94-16.036.082-6.331-.408-12.046-.413-12.1a.572.572,0,0,1,.458-.611l15.8-3.16c-1.519.094-3.159.209-4.813.349-11.234.955-13.355,2.226-13.746,2.728-1.267,1.628-7.2,10.457-12.438,18.247-4.4,6.549-8.2,12.2-8.816,12.97-.272.339-1.615,1.948-3.647,4.383-7.148,8.562-26.136,31.305-27.166,33.367-.445.891-1.894,4.183-3.572,7.994-4.3,9.765-7.925,17.935-8.779,19C410.41,137.695,379.984,176.357,375.958,181.474Zm139.919-3.09,10.008,5.438,2.09-2.275Zm14.759-3.312c.005.36.025,1.637.071,3.5l4.547-4.948,46.8-69.533-13.119-8.32a.573.573,0,0,1,.146-1.033l15.41-4.493-8.833-35.991a.575.575,0,0,1-.013-.2l.092-.831-3.3,2.7c.176,1.446.383,3.461.49,5.635.281,5.728-.232,9.8-1.525,12.1-1.406,2.5-5.552,12.135-9.561,21.452-2.18,5.066-4.434,10.3-6.148,14.157-2.447,5.5-3.032,6.491-3.356,6.734-.239.389-1.081,2.264-3.968,9.97-1.877,5.01-4.379,11.841-7.435,20.3C535.952,160.066,531.09,173.789,530.635,175.072ZM514.4,154.727l.188.8c.1-.937.208-2.048.334-3.306ZM496.855,82.634c.718,2.927,4.98,20.288,9.191,37.547,4.158,17.043,6.46,26.573,7.734,31.919l.438-2.1L518.2,93.591a.572.572,0,0,1,.559-.532l1.99-.042.064-.654c-1.29-.012-2.442-.069-3.4-.17-1.915-.2-3.123-.576-3.691-1.144-.929-.93-1.46-2.593-1.578-4.942a21.6,21.6,0,0,1,.028-2.51c-1.674.014-6.1-.15-8.384-2.151a2.855,2.855,0,0,1-.871-2.092Zm22.45,11.559-3.4,48.22c1.4-14.127,3.376-34.312,4.736-48.249Zm9.318,24.829-1.01,5.735a32.372,32.372,0,0,1,1.6-4.81c3.266-6.86,7.238-19.063,7.278-19.186a.572.572,0,0,1,.166-.253l8.292-7.3c.234-.216,9.131-8.42,16-13,3.171-2.114,5.44-7.55,6.951-12.7a11.5,11.5,0,0,1-4.126,3.47,15.654,15.654,0,0,1-3.186,1.25c-.965,1.132-5.658,6.615-6.639,7.27-.085.057-.28.19-.55.375-9.935,6.8-16.584,10.717-19.228,11.328a67.716,67.716,0,0,1-10.944,1.134q-.643.019-1.257.026l-.045.63,12.435-.265a.57.57,0,0,1,.532.332l1.992,4.316a.573.573,0,0,1,.014.448ZM512.8,82.435a.573.573,0,0,1,.569.639c-.174,1.494-.306,5.693,1.164,7.165.568.568,3.144,1.116,8.668.952a65.653,65.653,0,0,0,10.72-1.105c1.43-.33,5.78-2.219,18.839-11.157.284-.194.471-.322.562-.383.676-.452,4.359-4.656,6.522-7.2a.573.573,0,0,1,.312-.188,14.223,14.223,0,0,0,3.122-1.208,9.563,9.563,0,0,0,4.444-4.435c1.606-3.747.71-8.027.4-9.233-1.467-.234-4.562-.5-5.8.417a1.1,1.1,0,0,0-.481.8c-.338,3.052-2.934,8.273-3.045,8.494l-.014.026-4.316,7.636a.574.574,0,0,1-.123.151l-4.98,4.317a.572.572,0,0,1-.933-.563c.005-.022.516-2.218.914-4.543.65-3.788.477-4.827.39-5.081a12.074,12.074,0,0,0-1.62.1,17.655,17.655,0,0,1-4.318.07c-1.824-.282-2.945-1.142-3.33-2.554a26.37,26.37,0,0,1-.434-7.657c.092-1.476.4-5,1.244-5.848a28.164,28.164,0,0,1,3.1-1.984c2.9-1.753,7.27-4.4,11.155-7.215a41.073,41.073,0,0,0,6.029-5.1c-2.044,1.551-5.048,3.77-8.352,6.011-8.119,5.5-14.1,8.511-17.771,8.934l-.81.1c-6.145.726-17.584,2.077-24.654-4.118a16.227,16.227,0,0,1-4.322-6.179l-.047-.116c.035.973.073,2.024.11,3.112.158,4.647.347,10.781.347,13.611a19.887,19.887,0,0,0,1.923,8.691.573.573,0,0,1,0,.555,51.417,51.417,0,0,0-2.627,5.542,22.7,22.7,0,0,0-1.076,3.385l.323.388a.573.573,0,0,1-.167.87l-.371.2a2.259,2.259,0,0,0,.475,1.853c2.452,2.145,8.167,1.855,8.225,1.852ZM498.141,69.907l5.225,6.27a27.294,27.294,0,0,1,.927-2.719,51.846,51.846,0,0,1,2.542-5.4,21.293,21.293,0,0,1-1.918-8.954c0-2.814-.188-8.933-.346-13.572-.052-1.5-.1-2.929-.149-4.18Zm51.4-3.118a2.441,2.441,0,0,1,.58.056c.8.2.87,1.286.837,2.322a29.335,29.335,0,0,1-.412,3.6c-.2,1.218-.439,2.434-.634,3.368l3.6-3.124,4.26-7.537c.141-.285,2.617-5.313,2.925-8.1a2.234,2.234,0,0,1,.94-1.6,7.043,7.043,0,0,1,4.353-.852,20.143,20.143,0,0,1,2.689.292.572.572,0,0,1,.439.392,17.31,17.31,0,0,1,.6,3.359c.019.219.035.451.047.694.374-1.962.552-3.246.559-3.3a.572.572,0,0,1,.2-.366l.681-.558c-.123-.953-.216-1.535-.221-1.563a.572.572,0,0,1,.146-.482,21.71,21.71,0,0,0,4.593-7.953,33.823,33.823,0,0,0,1.606-8.422,42.6,42.6,0,0,0-.363-9.351,39.558,39.558,0,0,0-5.128-11.456,34.106,34.106,0,0,0-7.982-8.666A30.582,30.582,0,0,0,550.875,1.89a46.536,46.536,0,0,0-19.039.511,39.755,39.755,0,0,0-16.459,8.031,28.026,28.026,0,0,0-10.312,22.43,32.2,32.2,0,0,0,.258,3.708.571.571,0,0,1,.074.26c0,.007.005.134.014.363a21.681,21.681,0,0,0,1.3,4.869,15.093,15.093,0,0,0,4.016,5.749c6.687,5.86,17.8,4.547,23.765,3.842l.813-.1c8.372-.965,28.065-16.652,28.263-16.811a.573.573,0,0,1,.9.628c-.716,2.146-3.42,4.9-8.268,8.406-3.923,2.841-8.323,5.5-11.234,7.267-1.384.838-2.692,1.629-2.885,1.815-.255.262-.722,2.072-.911,5.122a25.63,25.63,0,0,0,.4,7.272c.263.963,1.025,1.511,2.4,1.724A16.8,16.8,0,0,0,548,66.9C548.623,66.841,549.137,66.79,549.542,66.79Z" transform="translate(0.003 0.423)" fill="#fff"/></g></g></g></svg>